<?xml version="1.0" encoding="UTF-8" standalone="no"?>
<!DOCTYPE svg PUBLIC "-//W3C//DTD SVG 1.1//EN"
 "http://www.w3.org/Graphics/SVG/1.1/DTD/svg11.dtd">
<!-- Generated by graphviz version 2.28.0 (20120723.1027)
 -->
<!-- Title: root Pages: 1 -->
<svg width="935pt" height="956pt"
 viewBox="0.00 0.00 935.00 956.00" xmlns="http://www.w3.org/2000/svg" xmlns:xlink="http://www.w3.org/1999/xlink">
<g id="graph1" class="graph" transform="scale(1 1) rotate(0) translate(4 952)">
<title>root</title>
<polygon fill="white" stroke="white" points="-4,5 -4,-952 931.999,-952 931.999,5 -4,5"/>
<!-- Point (3D) -->
<g id="node2" class="node"><title>Point (3D)</title>
<ellipse fill="lightblue" stroke="black" cx="127.499" cy="-330" rx="52.1572" ry="18"/>
<text text-anchor="middle" x="127.499" y="-324.4" font-family="Times,serif" font-size="14.00">Point (3D)</text>
</g>
<!-- RPoint (3D) -->
<g id="node3" class="node"><title>RPoint (3D)</title>
<polygon fill="none" stroke="black" points="169.999,-276 84.999,-276 84.999,-240 169.999,-240 169.999,-276"/>
<text text-anchor="middle" x="127.499" y="-252.4" font-family="Times,serif" font-size="14.00">RPoint (3D)</text>
</g>
<!-- Point (3D)&#45;&gt;RPoint (3D) -->
<g id="edge3" class="edge"><title>Point (3D)&#45;&gt;RPoint (3D)</title>
<path fill="none" stroke="blue" d="M127.499,-311.7C127.499,-303.98 127.499,-294.71 127.499,-286.11"/>
<polygon fill="blue" stroke="blue" points="130.999,-286.1 127.499,-276.1 123.999,-286.1 130.999,-286.1"/>
</g>
<!-- Points (3D) -->
<g id="node6" class="node"><title>Points (3D)</title>
<ellipse fill="lightblue" stroke="black" cx="806.499" cy="-870" rx="56" ry="18"/>
<text text-anchor="middle" x="806.499" y="-864.4" font-family="Times,serif" font-size="14.00">Points (3D)</text>
</g>
<!-- RPoints (3D) -->
<g id="node7" class="node"><title>RPoints (3D)</title>
<polygon fill="none" stroke="black" points="851.786,-816 761.212,-816 761.212,-780 851.786,-780 851.786,-816"/>
<text text-anchor="middle" x="806.499" y="-792.4" font-family="Times,serif" font-size="14.00">RPoints (3D)</text>
</g>
<!-- Points (3D)&#45;&gt;RPoints (3D) -->
<g id="edge6" class="edge"><title>Points (3D)&#45;&gt;RPoints (3D)</title>
<path fill="none" stroke="blue" d="M806.499,-851.7C806.499,-843.98 806.499,-834.71 806.499,-826.11"/>
<polygon fill="blue" stroke="blue" points="809.999,-826.1 806.499,-816.1 802.999,-826.1 809.999,-826.1"/>
</g>
<!-- Line (3D) -->
<g id="node10" class="node"><title>Line (3D)</title>
<ellipse fill="lightblue" stroke="black" cx="103.499" cy="-555" rx="49.5" ry="18"/>
<text text-anchor="middle" x="103.499" y="-549.4" font-family="Times,serif" font-size="14.00">Line (3D)</text>
</g>
<!-- RLinePoints (3D) -->
<g id="node11" class="node"><title>RLinePoints (3D)</title>
<polygon fill="none" stroke="black" points="161.499,-501 45.499,-501 45.499,-465 161.499,-465 161.499,-501"/>
<text text-anchor="middle" x="103.499" y="-477.4" font-family="Times,serif" font-size="14.00">RLinePoints (3D)</text>
</g>
<!-- Line (3D)&#45;&gt;RLinePoints (3D) -->
<g id="edge9" class="edge"><title>Line (3D)&#45;&gt;RLinePoints (3D)</title>
<path fill="none" stroke="blue" d="M103.499,-536.7C103.499,-528.98 103.499,-519.71 103.499,-511.11"/>
<polygon fill="blue" stroke="blue" points="106.999,-511.1 103.499,-501.1 99.9991,-511.1 106.999,-511.1"/>
</g>
<!-- Lines (3D) -->
<g id="node14" class="node"><title>Lines (3D)</title>
<ellipse fill="lightblue" stroke="black" cx="136.499" cy="-195" rx="53.2793" ry="18"/>
<text text-anchor="middle" x="136.499" y="-189.4" font-family="Times,serif" font-size="14.00">Lines (3D)</text>
</g>
<!-- RLinesPoints (3D) -->
<g id="node15" class="node"><title>RLinesPoints (3D)</title>
<polygon fill="none" stroke="black" points="197.389,-141 75.6087,-141 75.6087,-105 197.389,-105 197.389,-141"/>
<text text-anchor="middle" x="136.499" y="-117.4" font-family="Times,serif" font-size="14.00">RLinesPoints (3D)</text>
</g>
<!-- Lines (3D)&#45;&gt;RLinesPoints (3D) -->
<g id="edge12" class="edge"><title>Lines (3D)&#45;&gt;RLinesPoints (3D)</title>
<path fill="none" stroke="blue" d="M136.499,-176.7C136.499,-168.98 136.499,-159.71 136.499,-151.11"/>
<polygon fill="blue" stroke="blue" points="139.999,-151.1 136.499,-141.1 132.999,-151.1 139.999,-151.1"/>
</g>
<!-- Polyline (3D) -->
<g id="node18" class="node"><title>Polyline (3D)</title>
<ellipse fill="lightblue" stroke="black" cx="469.499" cy="-330" rx="64" ry="18"/>
<text text-anchor="middle" x="469.499" y="-324.4" font-family="Times,serif" font-size="14.00">Polyline (3D)</text>
</g>
<!-- RPolylinePoints (3D) -->
<g id="node19" class="node"><title>RPolylinePoints (3D)</title>
<polygon fill="none" stroke="black" points="610.999,-276 473.999,-276 473.999,-240 610.999,-240 610.999,-276"/>
<text text-anchor="middle" x="542.499" y="-252.4" font-family="Times,serif" font-size="14.00">RPolylinePoints (3D)</text>
</g>
<!-- Polyline (3D)&#45;&gt;RPolylinePoints (3D) -->
<g id="edge15" class="edge"><title>Polyline (3D)&#45;&gt;RPolylinePoints (3D)</title>
<path fill="none" stroke="blue" d="M486.799,-312.41C495.869,-303.71 507.149,-292.89 517.189,-283.27"/>
<polygon fill="blue" stroke="blue" points="519.766,-285.648 524.559,-276.2 514.92,-280.597 519.766,-285.648"/>
</g>
<!-- Polygon (3D) -->
<g id="node20" class="node"><title>Polygon (3D)</title>
<ellipse fill="lightblue" stroke="black" cx="615.499" cy="-330" rx="64" ry="18"/>
<text text-anchor="middle" x="615.499" y="-324.4" font-family="Times,serif" font-size="14.00">Polygon (3D)</text>
</g>
<!-- Polygon (3D)&#45;&gt;RPolylinePoints (3D) -->
<g id="edge17" class="edge"><title>Polygon (3D)&#45;&gt;RPolylinePoints (3D)</title>
<path fill="none" stroke="blue" d="M598.199,-312.41C589.129,-303.71 577.849,-292.89 567.809,-283.27"/>
<polygon fill="blue" stroke="blue" points="570.078,-280.597 560.439,-276.2 565.232,-285.648 570.078,-280.597"/>
</g>
<!-- PolylineSpline (3D) -->
<g id="node24" class="node"><title>PolylineSpline (3D)</title>
<ellipse fill="lightblue" stroke="black" cx="569.499" cy="-600" rx="88.6123" ry="18"/>
<text text-anchor="middle" x="569.499" y="-594.4" font-family="Times,serif" font-size="14.00">PolylineSpline (3D)</text>
</g>
<!-- RPolylineVector (3D) -->
<g id="node25" class="node"><title>RPolylineVector (3D)</title>
<polygon fill="none" stroke="black" points="736.499,-546 596.499,-546 596.499,-510 736.499,-510 736.499,-546"/>
<text text-anchor="middle" x="666.499" y="-522.4" font-family="Times,serif" font-size="14.00">RPolylineVector (3D)</text>
</g>
<!-- PolylineSpline (3D)&#45;&gt;RPolylineVector (3D) -->
<g id="edge20" class="edge"><title>PolylineSpline (3D)&#45;&gt;RPolylineVector (3D)</title>
<path fill="none" stroke="blue" d="M592.489,-582.41C605.009,-573.37 620.719,-562.04 634.429,-552.14"/>
<polygon fill="blue" stroke="blue" points="636.599,-554.89 642.659,-546.2 632.502,-549.214 636.599,-554.89"/>
</g>
<!-- PolygonSpline (3D) -->
<g id="node26" class="node"><title>PolygonSpline (3D)</title>
<ellipse fill="lightblue" stroke="black" cx="764.499" cy="-600" rx="88.6217" ry="18"/>
<text text-anchor="middle" x="764.499" y="-594.4" font-family="Times,serif" font-size="14.00">PolygonSpline (3D)</text>
</g>
<!-- PolygonSpline (3D)&#45;&gt;RPolylineVector (3D) -->
<g id="edge22" class="edge"><title>PolygonSpline (3D)&#45;&gt;RPolylineVector (3D)</title>
<path fill="none" stroke="blue" d="M741.279,-582.41C728.619,-573.37 712.759,-562.04 698.899,-552.14"/>
<polygon fill="blue" stroke="blue" points="700.751,-549.162 690.579,-546.2 696.684,-554.859 700.751,-549.162"/>
</g>
<!-- Arc (3D) -->
<g id="node30" class="node"><title>Arc (3D)</title>
<ellipse fill="lightblue" stroke="black" cx="751.499" cy="-90" rx="46.3222" ry="18"/>
<text text-anchor="middle" x="751.499" y="-84.4" font-family="Times,serif" font-size="14.00">Arc (3D)</text>
</g>
<!-- RArc1 (3D) -->
<g id="node31" class="node"><title>RArc1 (3D)</title>
<polygon fill="none" stroke="black" points="793.258,-36 709.74,-36 709.74,-0 793.258,-0 793.258,-36"/>
<text text-anchor="middle" x="751.499" y="-12.4" font-family="Times,serif" font-size="14.00">RArc1 (3D)</text>
</g>
<!-- Arc (3D)&#45;&gt;RArc1 (3D) -->
<g id="edge25" class="edge"><title>Arc (3D)&#45;&gt;RArc1 (3D)</title>
<path fill="none" stroke="blue" d="M751.499,-71.697C751.499,-63.983 751.499,-54.712 751.499,-46.112"/>
<polygon fill="blue" stroke="blue" points="754.999,-46.104 751.499,-36.104 747.999,-46.104 754.999,-46.104"/>
</g>
<!-- Cuboid (3D) -->
<g id="node34" class="node"><title>Cuboid (3D)</title>
<ellipse fill="lightblue" stroke="black" cx="525.499" cy="-825" rx="60.2459" ry="18"/>
<text text-anchor="middle" x="525.499" y="-819.4" font-family="Times,serif" font-size="14.00">Cuboid (3D)</text>
</g>
<!-- RCuboid1 (3D) -->
<g id="node35" class="node"><title>RCuboid1 (3D)</title>
<polygon fill="none" stroke="black" points="577,-771 473.998,-771 473.998,-735 577,-735 577,-771"/>
<text text-anchor="middle" x="525.499" y="-747.4" font-family="Times,serif" font-size="14.00">RCuboid1 (3D)</text>
</g>
<!-- Cuboid (3D)&#45;&gt;RCuboid1 (3D) -->
<g id="edge28" class="edge"><title>Cuboid (3D)&#45;&gt;RCuboid1 (3D)</title>
<path fill="none" stroke="blue" d="M525.499,-806.7C525.499,-798.98 525.499,-789.71 525.499,-781.11"/>
<polygon fill="blue" stroke="blue" points="528.999,-781.1 525.499,-771.1 521.999,-781.1 528.999,-781.1"/>
</g>
<!-- Ellipsoid (3D) -->
<g id="node38" class="node"><title>Ellipsoid (3D)</title>
<ellipse fill="lightblue" stroke="black" cx="472.499" cy="-195" rx="66.6185" ry="18"/>
<text text-anchor="middle" x="472.499" y="-189.4" font-family="Times,serif" font-size="14.00">Ellipsoid (3D)</text>
</g>
<!-- RHalfAxes (3D) -->
<g id="node39" class="node"><title>RHalfAxes (3D)</title>
<polygon fill="none" stroke="black" points="526.999,-141 417.999,-141 417.999,-105 526.999,-105 526.999,-141"/>
<text text-anchor="middle" x="472.499" y="-117.4" font-family="Times,serif" font-size="14.00">RHalfAxes (3D)</text>
</g>
<!-- Ellipsoid (3D)&#45;&gt;RHalfAxes (3D) -->
<g id="edge31" class="edge"><title>Ellipsoid (3D)&#45;&gt;RHalfAxes (3D)</title>
<path fill="none" stroke="blue" d="M472.499,-176.7C472.499,-168.98 472.499,-159.71 472.499,-151.11"/>
<polygon fill="blue" stroke="blue" points="475.999,-151.1 472.499,-141.1 468.999,-151.1 475.999,-151.1"/>
</g>
<!-- Cylinder (3D) -->
<g id="node42" class="node"><title>Cylinder (3D)</title>
<ellipse fill="lightblue" stroke="black" cx="706.499" cy="-465" rx="65.5" ry="18"/>
<text text-anchor="middle" x="706.499" y="-459.4" font-family="Times,serif" font-size="14.00">Cylinder (3D)</text>
</g>
<!-- REllipticCylinder1 (3D) -->
<g id="node43" class="node"><title>REllipticCylinder1 (3D)</title>
<polygon fill="none" stroke="black" points="782.979,-411 630.019,-411 630.019,-375 782.979,-375 782.979,-411"/>
<text text-anchor="middle" x="706.499" y="-387.4" font-family="Times,serif" font-size="14.00">REllipticCylinder1 (3D)</text>
</g>
<!-- Cylinder (3D)&#45;&gt;REllipticCylinder1 (3D) -->
<g id="edge34" class="edge"><title>Cylinder (3D)&#45;&gt;REllipticCylinder1 (3D)</title>
<path fill="none" stroke="blue" d="M706.499,-446.7C706.499,-438.98 706.499,-429.71 706.499,-421.11"/>
<polygon fill="blue" stroke="blue" points="709.999,-421.1 706.499,-411.1 702.999,-421.1 709.999,-421.1"/>
</g>
<!-- Mesh (3D) -->
<g id="node46" class="node"><title>Mesh (3D)</title>
<ellipse fill="lightblue" stroke="black" cx="623.499" cy="-195" rx="53.2888" ry="18"/>
<text text-anchor="middle" x="623.499" y="-189.4" font-family="Times,serif" font-size="14.00">Mesh (3D)</text>
</g>
<!-- RMesh (3D) -->
<g id="node47" class="node"><title>RMesh (3D)</title>
<polygon fill="none" stroke="black" points="666.883,-141 580.115,-141 580.115,-105 666.883,-105 666.883,-141"/>
<text text-anchor="middle" x="623.499" y="-117.4" font-family="Times,serif" font-size="14.00">RMesh (3D)</text>
</g>
<!-- Mesh (3D)&#45;&gt;RMesh (3D) -->
<g id="edge37" class="edge"><title>Mesh (3D)&#45;&gt;RMesh (3D)</title>
<path fill="none" stroke="blue" d="M623.499,-176.7C623.499,-168.98 623.499,-159.71 623.499,-151.11"/>
<polygon fill="blue" stroke="blue" points="626.999,-151.1 623.499,-141.1 619.999,-151.1 626.999,-151.1"/>
</g>
<!-- BitMask (3D) -->
<g id="node50" class="node"><title>BitMask (3D)</title>
<ellipse fill="lightblue" stroke="black" cx="290.499" cy="-195" rx="65" ry="18"/>
<text text-anchor="middle" x="290.499" y="-189.4" font-family="Times,serif" font-size="14.00">BitMask (3D)</text>
</g>
<!-- RBitMask (3D) -->
<g id="node51" class="node"><title>RBitMask (3D)</title>
<polygon fill="none" stroke="black" points="342,-141 238.998,-141 238.998,-105 342,-105 342,-141"/>
<text text-anchor="middle" x="290.499" y="-117.4" font-family="Times,serif" font-size="14.00">RBitMask (3D)</text>
</g>
<!-- BitMask (3D)&#45;&gt;RBitMask (3D) -->
<g id="edge40" class="edge"><title>BitMask (3D)&#45;&gt;RBitMask (3D)</title>
<path fill="none" stroke="blue" d="M290.499,-176.7C290.499,-168.98 290.499,-159.71 290.499,-151.11"/>
<polygon fill="blue" stroke="blue" points="293.999,-151.1 290.499,-141.1 286.999,-151.1 293.999,-151.1"/>
</g>
<!-- GreyMask (3D) -->
<g id="node54" class="node"><title>GreyMask (3D)</title>
<ellipse fill="lightblue" stroke="black" cx="777.499" cy="-225" rx="72.5" ry="18"/>
<text text-anchor="middle" x="777.499" y="-219.4" font-family="Times,serif" font-size="14.00">GreyMask (3D)</text>
</g>
<!-- RGreyMask (3D) -->
<g id="node55" class="node"><title>RGreyMask (3D)</title>
<polygon fill="none" stroke="black" points="834.869,-171 720.129,-171 720.129,-135 834.869,-135 834.869,-171"/>
<text text-anchor="middle" x="777.499" y="-147.4" font-family="Times,serif" font-size="14.00">RGreyMask (3D)</text>
</g>
<!-- GreyMask (3D)&#45;&gt;RGreyMask (3D) -->
<g id="edge43" class="edge"><title>GreyMask (3D)&#45;&gt;RGreyMask (3D)</title>
<path fill="none" stroke="blue" d="M777.499,-206.7C777.499,-198.98 777.499,-189.71 777.499,-181.11"/>
<polygon fill="blue" stroke="blue" points="780.999,-181.1 777.499,-171.1 773.999,-181.1 780.999,-181.1"/>
</g>
<!-- AffineTransform (3D) -->
<g id="node58" class="node"><title>AffineTransform (3D)</title>
<ellipse fill="lightblue" stroke="black" cx="713.499" cy="-735" rx="97.5" ry="18"/>
<text text-anchor="middle" x="713.499" y="-729.4" font-family="Times,serif" font-size="14.00">AffineTransform (3D)</text>
</g>
<!-- RAffineTransform (3D) -->
<g id="node59" class="node"><title>RAffineTransform (3D)</title>
<polygon fill="none" stroke="black" points="788.999,-681 637.999,-681 637.999,-645 788.999,-645 788.999,-681"/>
<text text-anchor="middle" x="713.499" y="-657.4" font-family="Times,serif" font-size="14.00">RAffineTransform (3D)</text>
</g>
<!-- AffineTransform (3D)&#45;&gt;RAffineTransform (3D) -->
<g id="edge46" class="edge"><title>AffineTransform (3D)&#45;&gt;RAffineTransform (3D)</title>
<path fill="none" stroke="blue" d="M713.499,-716.7C713.499,-708.98 713.499,-699.71 713.499,-691.11"/>
<polygon fill="blue" stroke="blue" points="716.999,-691.1 713.499,-681.1 709.999,-691.1 716.999,-691.1"/>
</g>
<!-- AbstractTransform (3D) -->
<g id="node62" class="node"><title>AbstractTransform (3D)</title>
<ellipse fill="lightblue" stroke="black" cx="345.499" cy="-690" rx="105" ry="18"/>
<text text-anchor="middle" x="345.499" y="-684.4" font-family="Times,serif" font-size="14.00">AbstractTransform (3D)</text>
</g>
<!-- RAbstractTransform (3D) -->
<g id="node63" class="node"><title>RAbstractTransform (3D)</title>
<polygon fill="none" stroke="black" points="426.499,-636 264.499,-636 264.499,-600 426.499,-600 426.499,-636"/>
<text text-anchor="middle" x="345.499" y="-612.4" font-family="Times,serif" font-size="14.00">RAbstractTransform (3D)</text>
</g>
<!-- AbstractTransform (3D)&#45;&gt;RAbstractTransform (3D) -->
<g id="edge49" class="edge"><title>AbstractTransform (3D)&#45;&gt;RAbstractTransform (3D)</title>
<path fill="none" stroke="blue" d="M345.499,-671.7C345.499,-663.98 345.499,-654.71 345.499,-646.11"/>
<polygon fill="blue" stroke="blue" points="348.999,-646.1 345.499,-636.1 341.999,-646.1 348.999,-646.1"/>
</g>
<!-- Bitwise (3D) -->
<g id="node66" class="node"><title>Bitwise (3D)</title>
<ellipse fill="lightblue" stroke="black" cx="151.499" cy="-690" rx="61.387" ry="18"/>
<text text-anchor="middle" x="151.499" y="-684.4" font-family="Times,serif" font-size="14.00">Bitwise (3D)</text>
</g>
<!-- RBitwise (3D) -->
<g id="node67" class="node"><title>RBitwise (3D)</title>
<polygon fill="none" stroke="black" points="200.551,-636 102.447,-636 102.447,-600 200.551,-600 200.551,-636"/>
<text text-anchor="middle" x="151.499" y="-612.4" font-family="Times,serif" font-size="14.00">RBitwise (3D)</text>
</g>
<!-- Bitwise (3D)&#45;&gt;RBitwise (3D) -->
<g id="edge52" class="edge"><title>Bitwise (3D)&#45;&gt;RBitwise (3D)</title>
<path fill="none" stroke="blue" d="M151.499,-671.7C151.499,-663.98 151.499,-654.71 151.499,-646.11"/>
<polygon fill="blue" stroke="blue" points="154.999,-646.1 151.499,-636.1 147.999,-646.1 154.999,-646.1"/>
</g>
<!-- Value (nD) -->
<g id="node70" class="node"><title>Value (nD)</title>
<ellipse fill="lightblue" stroke="black" cx="670.499" cy="-870" rx="54.5" ry="18"/>
<text text-anchor="middle" x="670.499" y="-864.4" font-family="Times,serif" font-size="14.00">Value (nD)</text>
</g>
<!-- RValue (nD) -->
<g id="node71" class="node"><title>RValue (nD)</title>
<polygon fill="none" stroke="black" points="714.999,-816 625.999,-816 625.999,-780 714.999,-780 714.999,-816"/>
<text text-anchor="middle" x="670.499" y="-792.4" font-family="Times,serif" font-size="14.00">RValue (nD)</text>
</g>
<!-- Value (nD)&#45;&gt;RValue (nD) -->
<g id="edge55" class="edge"><title>Value (nD)&#45;&gt;RValue (nD)</title>
<path fill="none" stroke="blue" d="M670.499,-851.7C670.499,-843.98 670.499,-834.71 670.499,-826.11"/>
<polygon fill="blue" stroke="blue" points="673.999,-826.1 670.499,-816.1 666.999,-826.1 673.999,-826.1"/>
</g>
<!-- Values (nD) -->
<g id="node74" class="node"><title>Values (nD)</title>
<ellipse fill="lightblue" stroke="black" cx="868.499" cy="-360" rx="58.5" ry="18"/>
<text text-anchor="middle" x="868.499" y="-354.4" font-family="Times,serif" font-size="14.00">Values (nD)</text>
</g>
<!-- RValues (nD) -->
<g id="node75" class="node"><title>RValues (nD)</title>
<polygon fill="none" stroke="black" points="915.499,-306 821.499,-306 821.499,-270 915.499,-270 915.499,-306"/>
<text text-anchor="middle" x="868.499" y="-282.4" font-family="Times,serif" font-size="14.00">RValues (nD)</text>
</g>
<!-- Values (nD)&#45;&gt;RValues (nD) -->
<g id="edge58" class="edge"><title>Values (nD)&#45;&gt;RValues (nD)</title>
<path fill="none" stroke="blue" d="M868.499,-341.7C868.499,-333.98 868.499,-324.71 868.499,-316.11"/>
<polygon fill="blue" stroke="blue" points="871.999,-316.1 868.499,-306.1 864.999,-316.1 871.999,-316.1"/>
</g>
<!-- Range (nD) -->
<g id="node78" class="node"><title>Range (nD)</title>
<ellipse fill="lightblue" stroke="black" cx="56.5" cy="-930" rx="56.5" ry="18"/>
<text text-anchor="middle" x="56.5" y="-924.4" font-family="Times,serif" font-size="14.00">Range (nD)</text>
</g>
<!-- RRange2 (nD) -->
<g id="node79" class="node"><title>RRange2 (nD)</title>
<polygon fill="none" stroke="black" points="105.538,-876 7.46191,-876 7.46191,-840 105.538,-840 105.538,-876"/>
<text text-anchor="middle" x="56.5" y="-852.4" font-family="Times,serif" font-size="14.00">RRange2 (nD)</text>
</g>
<!-- Range (nD)&#45;&gt;RRange2 (nD) -->
<g id="edge61" class="edge"><title>Range (nD)&#45;&gt;RRange2 (nD)</title>
<path fill="none" stroke="blue" d="M56.5,-911.7C56.5,-903.98 56.5,-894.71 56.5,-886.11"/>
<polygon fill="blue" stroke="blue" points="60.0001,-886.1 56.5,-876.1 53.0001,-886.1 60.0001,-886.1"/>
</g>
<!-- ExtrudeDim (nD) -->
<g id="node82" class="node"><title>ExtrudeDim (nD)</title>
<ellipse fill="lightblue" stroke="black" cx="289.499" cy="-330" rx="79.5" ry="18"/>
<text text-anchor="middle" x="289.499" y="-324.4" font-family="Times,serif" font-size="14.00">ExtrudeDim (nD)</text>
</g>
<!-- RExtrude (nD) -->
<g id="node83" class="node"><title>RExtrude (nD)</title>
<polygon fill="none" stroke="black" points="339.499,-276 239.499,-276 239.499,-240 339.499,-240 339.499,-276"/>
<text text-anchor="middle" x="289.499" y="-252.4" font-family="Times,serif" font-size="14.00">RExtrude (nD)</text>
</g>
<!-- ExtrudeDim (nD)&#45;&gt;RExtrude (nD) -->
<g id="edge64" class="edge"><title>ExtrudeDim (nD)&#45;&gt;RExtrude (nD)</title>
<path fill="none" stroke="blue" d="M289.499,-311.7C289.499,-303.98 289.499,-294.71 289.499,-286.11"/>
<polygon fill="blue" stroke="blue" points="292.999,-286.1 289.499,-276.1 285.999,-286.1 292.999,-286.1"/>
</g>
<!-- CombineDim (nD) -->
<g id="node86" class="node"><title>CombineDim (nD)</title>
<ellipse fill="lightblue" stroke="black" cx="279.499" cy="-465" rx="84.5" ry="18"/>
<text text-anchor="middle" x="279.499" y="-459.4" font-family="Times,serif" font-size="14.00">CombineDim (nD)</text>
</g>
<!-- RSet (nD) -->
<g id="node87" class="node"><title>RSet (nD)</title>
<polygon fill="none" stroke="black" points="462.161,-411 388.837,-411 388.837,-375 462.161,-375 462.161,-411"/>
<text text-anchor="middle" x="425.499" y="-387.4" font-family="Times,serif" font-size="14.00">RSet (nD)</text>
</g>
<!-- CombineDim (nD)&#45;&gt;RSet (nD) -->
<g id="edge67" class="edge"><title>CombineDim (nD)&#45;&gt;RSet (nD)</title>
<path fill="none" stroke="blue" d="M312.269,-448.29C332.499,-438.59 358.719,-426.02 380.839,-415.41"/>
<polygon fill="blue" stroke="blue" points="382.534,-418.479 390.039,-411 379.509,-412.166 382.534,-418.479"/>
</g>
<!-- Set (nD) -->
<g id="node88" class="node"><title>Set (nD)</title>
<ellipse fill="lightblue" stroke="black" cx="425.499" cy="-465" rx="44.0496" ry="18"/>
<text text-anchor="middle" x="425.499" y="-459.4" font-family="Times,serif" font-size="14.00">Set (nD)</text>
</g>
<!-- Set (nD)&#45;&gt;RSet (nD) -->
<g id="edge69" class="edge"><title>Set (nD)&#45;&gt;RSet (nD)</title>
<path fill="none" stroke="blue" d="M425.499,-446.7C425.499,-438.98 425.499,-429.71 425.499,-421.11"/>
<polygon fill="blue" stroke="blue" points="428.999,-421.1 425.499,-411.1 421.999,-421.1 428.999,-421.1"/>
</g>
<!-- Group (nD) -->
<g id="node89" class="node"><title>Group (nD)</title>
<ellipse fill="lightblue" stroke="black" cx="543.499" cy="-465" rx="56.5" ry="18"/>
<text text-anchor="middle" x="543.499" y="-459.4" font-family="Times,serif" font-size="14.00">Group (nD)</text>
</g>
<!-- Group (nD)&#45;&gt;RSet (nD) -->
<g id="edge71" class="edge"><title>Group (nD)&#45;&gt;RSet (nD)</title>
<path fill="none" stroke="blue" d="M517.899,-448.81C501.959,-439.36 481.189,-427.04 463.379,-416.47"/>
<polygon fill="blue" stroke="blue" points="464.756,-413.218 454.369,-411.13 461.187,-419.24 464.756,-413.218"/>
</g>
<!-- Custom (3D) -->
<g id="node94" class="node"><title>Custom (3D)</title>
<ellipse fill="lightblue" stroke="black" cx="212.499" cy="-825" rx="61.9718" ry="18"/>
<text text-anchor="middle" x="212.499" y="-819.4" font-family="Times,serif" font-size="14.00">Custom (3D)</text>
</g>
<!-- RCustom (3D) -->
<g id="node95" class="node"><title>RCustom (3D)</title>
<polygon fill="none" stroke="black" points="261.999,-771 162.999,-771 162.999,-735 261.999,-735 261.999,-771"/>
<text text-anchor="middle" x="212.499" y="-747.4" font-family="Times,serif" font-size="14.00">RCustom (3D)</text>
</g>
<!-- Custom (3D)&#45;&gt;RCustom (3D) -->
<g id="edge74" class="edge"><title>Custom (3D)&#45;&gt;RCustom (3D)</title>
<path fill="none" stroke="blue" d="M212.499,-806.7C212.499,-798.98 212.499,-789.71 212.499,-781.11"/>
<polygon fill="blue" stroke="blue" points="215.999,-781.1 212.499,-771.1 208.999,-781.1 215.999,-781.1"/>
</g>
<!-- Property (nD) -->
<g id="node98" class="node"><title>Property (nD)</title>
<ellipse fill="lightblue" stroke="black" cx="365.499" cy="-825" rx="65" ry="18"/>
<text text-anchor="middle" x="365.499" y="-819.4" font-family="Times,serif" font-size="14.00">Property (nD)</text>
</g>
<!-- RProperties (nD) -->
<g id="node99" class="node"><title>RProperties (nD)</title>
<polygon fill="none" stroke="black" points="421.537,-771 309.461,-771 309.461,-735 421.537,-735 421.537,-771"/>
<text text-anchor="middle" x="365.499" y="-747.4" font-family="Times,serif" font-size="14.00">RProperties (nD)</text>
</g>
<!-- Property (nD)&#45;&gt;RProperties (nD) -->
<g id="edge77" class="edge"><title>Property (nD)&#45;&gt;RProperties (nD)</title>
<path fill="none" stroke="blue" d="M365.499,-806.7C365.499,-798.98 365.499,-789.71 365.499,-781.11"/>
<polygon fill="blue" stroke="blue" points="368.999,-781.1 365.499,-771.1 361.999,-781.1 368.999,-781.1"/>
</g>
<!-- Text (3D) -->
<g id="node102" class="node"><title>Text (3D)</title>
<ellipse fill="lightblue" stroke="black" cx="874.499" cy="-90" rx="49.5" ry="18"/>
<text text-anchor="middle" x="874.499" y="-84.4" font-family="Times,serif" font-size="14.00">Text (3D)</text>
</g>
<!-- RText (2D) -->
<g id="node103" class="node"><title>RText (2D)</title>
<polygon fill="none" stroke="black" points="914.999,-36 833.999,-36 833.999,-0 914.999,-0 914.999,-36"/>
<text text-anchor="middle" x="874.499" y="-12.4" font-family="Times,serif" font-size="14.00">RText (2D)</text>
</g>
<!-- Text (3D)&#45;&gt;RText (2D) -->
<g id="edge80" class="edge"><title>Text (3D)&#45;&gt;RText (2D)</title>
<path fill="none" stroke="blue" d="M874.499,-71.697C874.499,-63.983 874.499,-54.712 874.499,-46.112"/>
<polygon fill="blue" stroke="blue" points="877.999,-46.104 874.499,-36.104 870.999,-46.104 877.999,-46.104"/>
</g>
<!-- Scale (3D) -->
<g id="node106" class="node"><title>Scale (3D)</title>
<ellipse fill="lightblue" stroke="black" cx="398.499" cy="-528" rx="52.6946" ry="18"/>
<text text-anchor="middle" x="398.499" y="-522.4" font-family="Times,serif" font-size="14.00">Scale (3D)</text>
</g>
<!-- Grid (3D) -->
<g id="node108" class="node"><title>Grid (3D)</title>
<ellipse fill="lightblue" stroke="black" cx="259.499" cy="-558" rx="49.5" ry="18"/>
<text text-anchor="middle" x="259.499" y="-552.4" font-family="Times,serif" font-size="14.00">Grid (3D)</text>
</g>
</g>
</svg>
