<?xml version="1.0" encoding="UTF-8" standalone="no"?>
<!DOCTYPE svg PUBLIC "-//W3C//DTD SVG 1.1//EN"
 "http://www.w3.org/Graphics/SVG/1.1/DTD/svg11.dtd">
<!-- Generated by graphviz version 2.28.0 (20120723.1027)
 -->
<!-- Title: root Pages: 1 -->
<svg width="916pt" height="836pt"
 viewBox="0.00 0.00 916.00 836.00" xmlns="http://www.w3.org/2000/svg" xmlns:xlink="http://www.w3.org/1999/xlink">
<g id="graph1" class="graph" transform="scale(1 1) rotate(0) translate(4 832)">
<title>root</title>
<polygon fill="white" stroke="white" points="-4,5 -4,-832 913.002,-832 913.002,5 -4,5"/>
<!-- Point (3D) -->
<g id="node2" class="node"><title>Point (3D)</title>
<ellipse fill="lightblue" stroke="black" cx="112.502" cy="-225" rx="52.1572" ry="18"/>
<text text-anchor="middle" x="112.502" y="-219.4" font-family="Times,serif" font-size="14.00">Point (3D)</text>
</g>
<!-- RPoint (3D) -->
<g id="node3" class="node"><title>RPoint (3D)</title>
<polygon fill="none" stroke="black" points="155.002,-171 70.002,-171 70.002,-135 155.002,-135 155.002,-171"/>
<text text-anchor="middle" x="112.502" y="-147.4" font-family="Times,serif" font-size="14.00">RPoint (3D)</text>
</g>
<!-- Point (3D)&#45;&gt;RPoint (3D) -->
<g id="edge3" class="edge"><title>Point (3D)&#45;&gt;RPoint (3D)</title>
<path fill="none" stroke="blue" d="M112.502,-206.7C112.502,-198.98 112.502,-189.71 112.502,-181.11"/>
<polygon fill="blue" stroke="blue" points="116.002,-181.1 112.502,-171.1 109.002,-181.1 116.002,-181.1"/>
</g>
<!-- Points (3D) -->
<g id="node6" class="node"><title>Points (3D)</title>
<ellipse fill="lightblue" stroke="black" cx="116.502" cy="-90" rx="56" ry="18"/>
<text text-anchor="middle" x="116.502" y="-84.4" font-family="Times,serif" font-size="14.00">Points (3D)</text>
</g>
<!-- RPoints (3D) -->
<g id="node7" class="node"><title>RPoints (3D)</title>
<polygon fill="none" stroke="black" points="161.789,-36 71.2154,-36 71.2154,-0 161.789,-0 161.789,-36"/>
<text text-anchor="middle" x="116.502" y="-12.4" font-family="Times,serif" font-size="14.00">RPoints (3D)</text>
</g>
<!-- Points (3D)&#45;&gt;RPoints (3D) -->
<g id="edge6" class="edge"><title>Points (3D)&#45;&gt;RPoints (3D)</title>
<path fill="none" stroke="blue" d="M116.502,-71.697C116.502,-63.983 116.502,-54.712 116.502,-46.112"/>
<polygon fill="blue" stroke="blue" points="120.002,-46.104 116.502,-36.104 113.002,-46.104 120.002,-46.104"/>
</g>
<!-- Line (3D) -->
<g id="node10" class="node"><title>Line (3D)</title>
<ellipse fill="lightblue" stroke="black" cx="268.502" cy="-90" rx="49.5" ry="18"/>
<text text-anchor="middle" x="268.502" y="-84.4" font-family="Times,serif" font-size="14.00">Line (3D)</text>
</g>
<!-- RLinePoints (3D) -->
<g id="node11" class="node"><title>RLinePoints (3D)</title>
<polygon fill="none" stroke="black" points="326.502,-36 210.502,-36 210.502,-0 326.502,-0 326.502,-36"/>
<text text-anchor="middle" x="268.502" y="-12.4" font-family="Times,serif" font-size="14.00">RLinePoints (3D)</text>
</g>
<!-- Line (3D)&#45;&gt;RLinePoints (3D) -->
<g id="edge9" class="edge"><title>Line (3D)&#45;&gt;RLinePoints (3D)</title>
<path fill="none" stroke="blue" d="M268.502,-71.697C268.502,-63.983 268.502,-54.712 268.502,-46.112"/>
<polygon fill="blue" stroke="blue" points="272.002,-46.104 268.502,-36.104 265.002,-46.104 272.002,-46.104"/>
</g>
<!-- Lines (3D) -->
<g id="node14" class="node"><title>Lines (3D)</title>
<ellipse fill="lightblue" stroke="black" cx="196.502" cy="-720" rx="53.2793" ry="18"/>
<text text-anchor="middle" x="196.502" y="-714.4" font-family="Times,serif" font-size="14.00">Lines (3D)</text>
</g>
<!-- RLinesPoints (3D) -->
<g id="node15" class="node"><title>RLinesPoints (3D)</title>
<polygon fill="none" stroke="black" points="257.392,-666 135.612,-666 135.612,-630 257.392,-630 257.392,-666"/>
<text text-anchor="middle" x="196.502" y="-642.4" font-family="Times,serif" font-size="14.00">RLinesPoints (3D)</text>
</g>
<!-- Lines (3D)&#45;&gt;RLinesPoints (3D) -->
<g id="edge12" class="edge"><title>Lines (3D)&#45;&gt;RLinesPoints (3D)</title>
<path fill="none" stroke="blue" d="M196.502,-701.7C196.502,-693.98 196.502,-684.71 196.502,-676.11"/>
<polygon fill="blue" stroke="blue" points="200.002,-676.1 196.502,-666.1 193.002,-676.1 200.002,-676.1"/>
</g>
<!-- Polyline (3D) -->
<g id="node18" class="node"><title>Polyline (3D)</title>
<ellipse fill="lightblue" stroke="black" cx="454.502" cy="-225" rx="64" ry="18"/>
<text text-anchor="middle" x="454.502" y="-219.4" font-family="Times,serif" font-size="14.00">Polyline (3D)</text>
</g>
<!-- RPolylinePoints (3D) -->
<g id="node19" class="node"><title>RPolylinePoints (3D)</title>
<polygon fill="none" stroke="black" points="596.002,-171 459.002,-171 459.002,-135 596.002,-135 596.002,-171"/>
<text text-anchor="middle" x="527.502" y="-147.4" font-family="Times,serif" font-size="14.00">RPolylinePoints (3D)</text>
</g>
<!-- Polyline (3D)&#45;&gt;RPolylinePoints (3D) -->
<g id="edge15" class="edge"><title>Polyline (3D)&#45;&gt;RPolylinePoints (3D)</title>
<path fill="none" stroke="blue" d="M471.802,-207.41C480.872,-198.71 492.152,-187.89 502.192,-178.27"/>
<polygon fill="blue" stroke="blue" points="504.769,-180.648 509.562,-171.2 499.923,-175.597 504.769,-180.648"/>
</g>
<!-- Polygon (3D) -->
<g id="node20" class="node"><title>Polygon (3D)</title>
<ellipse fill="lightblue" stroke="black" cx="600.502" cy="-225" rx="64" ry="18"/>
<text text-anchor="middle" x="600.502" y="-219.4" font-family="Times,serif" font-size="14.00">Polygon (3D)</text>
</g>
<!-- Polygon (3D)&#45;&gt;RPolylinePoints (3D) -->
<g id="edge17" class="edge"><title>Polygon (3D)&#45;&gt;RPolylinePoints (3D)</title>
<path fill="none" stroke="blue" d="M583.202,-207.41C574.132,-198.71 562.852,-187.89 552.812,-178.27"/>
<polygon fill="blue" stroke="blue" points="555.081,-175.597 545.442,-171.2 550.235,-180.648 555.081,-175.597"/>
</g>
<!-- PolylineSpline (3D) -->
<g id="node24" class="node"><title>PolylineSpline (3D)</title>
<ellipse fill="lightblue" stroke="black" cx="554.502" cy="-495" rx="88.6123" ry="18"/>
<text text-anchor="middle" x="554.502" y="-489.4" font-family="Times,serif" font-size="14.00">PolylineSpline (3D)</text>
</g>
<!-- RPolylineVector (3D) -->
<g id="node25" class="node"><title>RPolylineVector (3D)</title>
<polygon fill="none" stroke="black" points="721.502,-441 581.502,-441 581.502,-405 721.502,-405 721.502,-441"/>
<text text-anchor="middle" x="651.502" y="-417.4" font-family="Times,serif" font-size="14.00">RPolylineVector (3D)</text>
</g>
<!-- PolylineSpline (3D)&#45;&gt;RPolylineVector (3D) -->
<g id="edge20" class="edge"><title>PolylineSpline (3D)&#45;&gt;RPolylineVector (3D)</title>
<path fill="none" stroke="blue" d="M577.492,-477.41C590.012,-468.37 605.722,-457.04 619.432,-447.14"/>
<polygon fill="blue" stroke="blue" points="621.602,-449.89 627.662,-441.2 617.505,-444.214 621.602,-449.89"/>
</g>
<!-- PolygonSpline (3D) -->
<g id="node26" class="node"><title>PolygonSpline (3D)</title>
<ellipse fill="lightblue" stroke="black" cx="749.502" cy="-495" rx="88.6217" ry="18"/>
<text text-anchor="middle" x="749.502" y="-489.4" font-family="Times,serif" font-size="14.00">PolygonSpline (3D)</text>
</g>
<!-- PolygonSpline (3D)&#45;&gt;RPolylineVector (3D) -->
<g id="edge22" class="edge"><title>PolygonSpline (3D)&#45;&gt;RPolylineVector (3D)</title>
<path fill="none" stroke="blue" d="M726.282,-477.41C713.622,-468.37 697.762,-457.04 683.902,-447.14"/>
<polygon fill="blue" stroke="blue" points="685.754,-444.162 675.582,-441.2 681.687,-449.859 685.754,-444.162"/>
</g>
<!-- Arc (3D) -->
<g id="node30" class="node"><title>Arc (3D)</title>
<ellipse fill="lightblue" stroke="black" cx="661.502" cy="-765" rx="46.3222" ry="18"/>
<text text-anchor="middle" x="661.502" y="-759.4" font-family="Times,serif" font-size="14.00">Arc (3D)</text>
</g>
<!-- RArc1 (3D) -->
<g id="node31" class="node"><title>RArc1 (3D)</title>
<polygon fill="none" stroke="black" points="703.261,-711 619.743,-711 619.743,-675 703.261,-675 703.261,-711"/>
<text text-anchor="middle" x="661.502" y="-687.4" font-family="Times,serif" font-size="14.00">RArc1 (3D)</text>
</g>
<!-- Arc (3D)&#45;&gt;RArc1 (3D) -->
<g id="edge25" class="edge"><title>Arc (3D)&#45;&gt;RArc1 (3D)</title>
<path fill="none" stroke="blue" d="M661.502,-746.7C661.502,-738.98 661.502,-729.71 661.502,-721.11"/>
<polygon fill="blue" stroke="blue" points="665.002,-721.1 661.502,-711.1 658.002,-721.1 665.002,-721.1"/>
</g>
<!-- Cuboid (3D) -->
<g id="node34" class="node"><title>Cuboid (3D)</title>
<ellipse fill="lightblue" stroke="black" cx="510.502" cy="-720" rx="60.2459" ry="18"/>
<text text-anchor="middle" x="510.502" y="-714.4" font-family="Times,serif" font-size="14.00">Cuboid (3D)</text>
</g>
<!-- RCuboid1 (3D) -->
<g id="node35" class="node"><title>RCuboid1 (3D)</title>
<polygon fill="none" stroke="black" points="562.003,-666 459.001,-666 459.001,-630 562.003,-630 562.003,-666"/>
<text text-anchor="middle" x="510.502" y="-642.4" font-family="Times,serif" font-size="14.00">RCuboid1 (3D)</text>
</g>
<!-- Cuboid (3D)&#45;&gt;RCuboid1 (3D) -->
<g id="edge28" class="edge"><title>Cuboid (3D)&#45;&gt;RCuboid1 (3D)</title>
<path fill="none" stroke="blue" d="M510.502,-701.7C510.502,-693.98 510.502,-684.71 510.502,-676.11"/>
<polygon fill="blue" stroke="blue" points="514.002,-676.1 510.502,-666.1 507.002,-676.1 514.002,-676.1"/>
</g>
<!-- Ellipsoid (3D) -->
<g id="node38" class="node"><title>Ellipsoid (3D)</title>
<ellipse fill="lightblue" stroke="black" cx="352.502" cy="-720" rx="66.6185" ry="18"/>
<text text-anchor="middle" x="352.502" y="-714.4" font-family="Times,serif" font-size="14.00">Ellipsoid (3D)</text>
</g>
<!-- RHalfAxes (3D) -->
<g id="node39" class="node"><title>RHalfAxes (3D)</title>
<polygon fill="none" stroke="black" points="407.002,-666 298.002,-666 298.002,-630 407.002,-630 407.002,-666"/>
<text text-anchor="middle" x="352.502" y="-642.4" font-family="Times,serif" font-size="14.00">RHalfAxes (3D)</text>
</g>
<!-- Ellipsoid (3D)&#45;&gt;RHalfAxes (3D) -->
<g id="edge31" class="edge"><title>Ellipsoid (3D)&#45;&gt;RHalfAxes (3D)</title>
<path fill="none" stroke="blue" d="M352.502,-701.7C352.502,-693.98 352.502,-684.71 352.502,-676.11"/>
<polygon fill="blue" stroke="blue" points="356.002,-676.1 352.502,-666.1 349.002,-676.1 356.002,-676.1"/>
</g>
<!-- Cylinder (3D) -->
<g id="node42" class="node"><title>Cylinder (3D)</title>
<ellipse fill="lightblue" stroke="black" cx="691.502" cy="-360" rx="65.5" ry="18"/>
<text text-anchor="middle" x="691.502" y="-354.4" font-family="Times,serif" font-size="14.00">Cylinder (3D)</text>
</g>
<!-- REllipticCylinder1 (3D) -->
<g id="node43" class="node"><title>REllipticCylinder1 (3D)</title>
<polygon fill="none" stroke="black" points="767.982,-306 615.022,-306 615.022,-270 767.982,-270 767.982,-306"/>
<text text-anchor="middle" x="691.502" y="-282.4" font-family="Times,serif" font-size="14.00">REllipticCylinder1 (3D)</text>
</g>
<!-- Cylinder (3D)&#45;&gt;REllipticCylinder1 (3D) -->
<g id="edge34" class="edge"><title>Cylinder (3D)&#45;&gt;REllipticCylinder1 (3D)</title>
<path fill="none" stroke="blue" d="M691.502,-341.7C691.502,-333.98 691.502,-324.71 691.502,-316.11"/>
<polygon fill="blue" stroke="blue" points="695.002,-316.1 691.502,-306.1 688.002,-316.1 695.002,-316.1"/>
</g>
<!-- Mesh (3D) -->
<g id="node46" class="node"><title>Mesh (3D)</title>
<ellipse fill="lightblue" stroke="black" cx="608.502" cy="-90" rx="53.2888" ry="18"/>
<text text-anchor="middle" x="608.502" y="-84.4" font-family="Times,serif" font-size="14.00">Mesh (3D)</text>
</g>
<!-- RMesh (3D) -->
<g id="node47" class="node"><title>RMesh (3D)</title>
<polygon fill="none" stroke="black" points="651.886,-36 565.118,-36 565.118,-0 651.886,-0 651.886,-36"/>
<text text-anchor="middle" x="608.502" y="-12.4" font-family="Times,serif" font-size="14.00">RMesh (3D)</text>
</g>
<!-- Mesh (3D)&#45;&gt;RMesh (3D) -->
<g id="edge37" class="edge"><title>Mesh (3D)&#45;&gt;RMesh (3D)</title>
<path fill="none" stroke="blue" d="M608.502,-71.697C608.502,-63.983 608.502,-54.712 608.502,-46.112"/>
<polygon fill="blue" stroke="blue" points="612.002,-46.104 608.502,-36.104 605.002,-46.104 612.002,-46.104"/>
</g>
<!-- BitMask (3D) -->
<g id="node50" class="node"><title>BitMask (3D)</title>
<ellipse fill="lightblue" stroke="black" cx="455.502" cy="-90" rx="65" ry="18"/>
<text text-anchor="middle" x="455.502" y="-84.4" font-family="Times,serif" font-size="14.00">BitMask (3D)</text>
</g>
<!-- RBitMask (3D) -->
<g id="node51" class="node"><title>RBitMask (3D)</title>
<polygon fill="none" stroke="black" points="507.003,-36 404.001,-36 404.001,-0 507.003,-0 507.003,-36"/>
<text text-anchor="middle" x="455.502" y="-12.4" font-family="Times,serif" font-size="14.00">RBitMask (3D)</text>
</g>
<!-- BitMask (3D)&#45;&gt;RBitMask (3D) -->
<g id="edge40" class="edge"><title>BitMask (3D)&#45;&gt;RBitMask (3D)</title>
<path fill="none" stroke="blue" d="M455.502,-71.697C455.502,-63.983 455.502,-54.712 455.502,-46.112"/>
<polygon fill="blue" stroke="blue" points="459.002,-46.104 455.502,-36.104 452.002,-46.104 459.002,-46.104"/>
</g>
<!-- GreyMask (3D) -->
<g id="node54" class="node"><title>GreyMask (3D)</title>
<ellipse fill="lightblue" stroke="black" cx="762.502" cy="-120" rx="72.5" ry="18"/>
<text text-anchor="middle" x="762.502" y="-114.4" font-family="Times,serif" font-size="14.00">GreyMask (3D)</text>
</g>
<!-- RGreyMask (3D) -->
<g id="node55" class="node"><title>RGreyMask (3D)</title>
<polygon fill="none" stroke="black" points="819.872,-66 705.132,-66 705.132,-30 819.872,-30 819.872,-66"/>
<text text-anchor="middle" x="762.502" y="-42.4" font-family="Times,serif" font-size="14.00">RGreyMask (3D)</text>
</g>
<!-- GreyMask (3D)&#45;&gt;RGreyMask (3D) -->
<g id="edge43" class="edge"><title>GreyMask (3D)&#45;&gt;RGreyMask (3D)</title>
<path fill="none" stroke="blue" d="M762.502,-101.7C762.502,-93.983 762.502,-84.712 762.502,-76.112"/>
<polygon fill="blue" stroke="blue" points="766.002,-76.104 762.502,-66.104 759.002,-76.104 766.002,-76.104"/>
</g>
<!-- AffineTransform (3D) -->
<g id="node58" class="node"><title>AffineTransform (3D)</title>
<ellipse fill="lightblue" stroke="black" cx="698.502" cy="-630" rx="97.5" ry="18"/>
<text text-anchor="middle" x="698.502" y="-624.4" font-family="Times,serif" font-size="14.00">AffineTransform (3D)</text>
</g>
<!-- RAffineTransform (3D) -->
<g id="node59" class="node"><title>RAffineTransform (3D)</title>
<polygon fill="none" stroke="black" points="774.002,-576 623.002,-576 623.002,-540 774.002,-540 774.002,-576"/>
<text text-anchor="middle" x="698.502" y="-552.4" font-family="Times,serif" font-size="14.00">RAffineTransform (3D)</text>
</g>
<!-- AffineTransform (3D)&#45;&gt;RAffineTransform (3D) -->
<g id="edge46" class="edge"><title>AffineTransform (3D)&#45;&gt;RAffineTransform (3D)</title>
<path fill="none" stroke="blue" d="M698.502,-611.7C698.502,-603.98 698.502,-594.71 698.502,-586.11"/>
<polygon fill="blue" stroke="blue" points="702.002,-586.1 698.502,-576.1 695.002,-586.1 702.002,-586.1"/>
</g>
<!-- AbstractTransform (3D) -->
<g id="node62" class="node"><title>AbstractTransform (3D)</title>
<ellipse fill="lightblue" stroke="black" cx="330.502" cy="-585" rx="105" ry="18"/>
<text text-anchor="middle" x="330.502" y="-579.4" font-family="Times,serif" font-size="14.00">AbstractTransform (3D)</text>
</g>
<!-- RAbstractTransform (3D) -->
<g id="node63" class="node"><title>RAbstractTransform (3D)</title>
<polygon fill="none" stroke="black" points="411.502,-531 249.502,-531 249.502,-495 411.502,-495 411.502,-531"/>
<text text-anchor="middle" x="330.502" y="-507.4" font-family="Times,serif" font-size="14.00">RAbstractTransform (3D)</text>
</g>
<!-- AbstractTransform (3D)&#45;&gt;RAbstractTransform (3D) -->
<g id="edge49" class="edge"><title>AbstractTransform (3D)&#45;&gt;RAbstractTransform (3D)</title>
<path fill="none" stroke="blue" d="M330.502,-566.7C330.502,-558.98 330.502,-549.71 330.502,-541.11"/>
<polygon fill="blue" stroke="blue" points="334.002,-541.1 330.502,-531.1 327.002,-541.1 334.002,-541.1"/>
</g>
<!-- Bitwise (3D) -->
<g id="node66" class="node"><title>Bitwise (3D)</title>
<ellipse fill="lightblue" stroke="black" cx="136.502" cy="-585" rx="61.387" ry="18"/>
<text text-anchor="middle" x="136.502" y="-579.4" font-family="Times,serif" font-size="14.00">Bitwise (3D)</text>
</g>
<!-- RBitwise (3D) -->
<g id="node67" class="node"><title>RBitwise (3D)</title>
<polygon fill="none" stroke="black" points="185.554,-531 87.4502,-531 87.4502,-495 185.554,-495 185.554,-531"/>
<text text-anchor="middle" x="136.502" y="-507.4" font-family="Times,serif" font-size="14.00">RBitwise (3D)</text>
</g>
<!-- Bitwise (3D)&#45;&gt;RBitwise (3D) -->
<g id="edge52" class="edge"><title>Bitwise (3D)&#45;&gt;RBitwise (3D)</title>
<path fill="none" stroke="blue" d="M136.502,-566.7C136.502,-558.98 136.502,-549.71 136.502,-541.11"/>
<polygon fill="blue" stroke="blue" points="140.002,-541.1 136.502,-531.1 133.002,-541.1 140.002,-541.1"/>
</g>
<!-- Value (nD) -->
<g id="node70" class="node"><title>Value (nD)</title>
<ellipse fill="lightblue" stroke="black" cx="790.502" cy="-765" rx="54.5" ry="18"/>
<text text-anchor="middle" x="790.502" y="-759.4" font-family="Times,serif" font-size="14.00">Value (nD)</text>
</g>
<!-- RValue (nD) -->
<g id="node71" class="node"><title>RValue (nD)</title>
<polygon fill="none" stroke="black" points="835.002,-711 746.002,-711 746.002,-675 835.002,-675 835.002,-711"/>
<text text-anchor="middle" x="790.502" y="-687.4" font-family="Times,serif" font-size="14.00">RValue (nD)</text>
</g>
<!-- Value (nD)&#45;&gt;RValue (nD) -->
<g id="edge55" class="edge"><title>Value (nD)&#45;&gt;RValue (nD)</title>
<path fill="none" stroke="blue" d="M790.502,-746.7C790.502,-738.98 790.502,-729.71 790.502,-721.11"/>
<polygon fill="blue" stroke="blue" points="794.002,-721.1 790.502,-711.1 787.002,-721.1 794.002,-721.1"/>
</g>
<!-- Values (nD) -->
<g id="node74" class="node"><title>Values (nD)</title>
<ellipse fill="lightblue" stroke="black" cx="88.5" cy="-450" rx="58.5" ry="18"/>
<text text-anchor="middle" x="88.5" y="-444.4" font-family="Times,serif" font-size="14.00">Values (nD)</text>
</g>
<!-- RValues (nD) -->
<g id="node75" class="node"><title>RValues (nD)</title>
<polygon fill="none" stroke="black" points="135.5,-396 41.5,-396 41.5,-360 135.5,-360 135.5,-396"/>
<text text-anchor="middle" x="88.5" y="-372.4" font-family="Times,serif" font-size="14.00">RValues (nD)</text>
</g>
<!-- Values (nD)&#45;&gt;RValues (nD) -->
<g id="edge58" class="edge"><title>Values (nD)&#45;&gt;RValues (nD)</title>
<path fill="none" stroke="blue" d="M88.5,-431.7C88.5,-423.98 88.5,-414.71 88.5,-406.11"/>
<polygon fill="blue" stroke="blue" points="92.0001,-406.1 88.5,-396.1 85.0001,-406.1 92.0001,-406.1"/>
</g>
<!-- Range (nD) -->
<g id="node78" class="node"><title>Range (nD)</title>
<ellipse fill="lightblue" stroke="black" cx="851.502" cy="-255" rx="56.5" ry="18"/>
<text text-anchor="middle" x="851.502" y="-249.4" font-family="Times,serif" font-size="14.00">Range (nD)</text>
</g>
<!-- RRange2 (nD) -->
<g id="node79" class="node"><title>RRange2 (nD)</title>
<polygon fill="none" stroke="black" points="900.54,-201 802.464,-201 802.464,-165 900.54,-165 900.54,-201"/>
<text text-anchor="middle" x="851.502" y="-177.4" font-family="Times,serif" font-size="14.00">RRange2 (nD)</text>
</g>
<!-- Range (nD)&#45;&gt;RRange2 (nD) -->
<g id="edge61" class="edge"><title>Range (nD)&#45;&gt;RRange2 (nD)</title>
<path fill="none" stroke="blue" d="M851.502,-236.7C851.502,-228.98 851.502,-219.71 851.502,-211.11"/>
<polygon fill="blue" stroke="blue" points="855.002,-211.1 851.502,-201.1 848.002,-211.1 855.002,-211.1"/>
</g>
<!-- ExtrudeDim (nD) -->
<g id="node82" class="node"><title>ExtrudeDim (nD)</title>
<ellipse fill="lightblue" stroke="black" cx="274.502" cy="-225" rx="79.5" ry="18"/>
<text text-anchor="middle" x="274.502" y="-219.4" font-family="Times,serif" font-size="14.00">ExtrudeDim (nD)</text>
</g>
<!-- RExtrude (nD) -->
<g id="node83" class="node"><title>RExtrude (nD)</title>
<polygon fill="none" stroke="black" points="324.502,-171 224.502,-171 224.502,-135 324.502,-135 324.502,-171"/>
<text text-anchor="middle" x="274.502" y="-147.4" font-family="Times,serif" font-size="14.00">RExtrude (nD)</text>
</g>
<!-- ExtrudeDim (nD)&#45;&gt;RExtrude (nD) -->
<g id="edge64" class="edge"><title>ExtrudeDim (nD)&#45;&gt;RExtrude (nD)</title>
<path fill="none" stroke="blue" d="M274.502,-206.7C274.502,-198.98 274.502,-189.71 274.502,-181.11"/>
<polygon fill="blue" stroke="blue" points="278.002,-181.1 274.502,-171.1 271.002,-181.1 278.002,-181.1"/>
</g>
<!-- CombineDim (nD) -->
<g id="node86" class="node"><title>CombineDim (nD)</title>
<ellipse fill="lightblue" stroke="black" cx="264.502" cy="-360" rx="84.5" ry="18"/>
<text text-anchor="middle" x="264.502" y="-354.4" font-family="Times,serif" font-size="14.00">CombineDim (nD)</text>
</g>
<!-- RSet (nD) -->
<g id="node87" class="node"><title>RSet (nD)</title>
<polygon fill="none" stroke="black" points="447.164,-306 373.84,-306 373.84,-270 447.164,-270 447.164,-306"/>
<text text-anchor="middle" x="410.502" y="-282.4" font-family="Times,serif" font-size="14.00">RSet (nD)</text>
</g>
<!-- CombineDim (nD)&#45;&gt;RSet (nD) -->
<g id="edge67" class="edge"><title>CombineDim (nD)&#45;&gt;RSet (nD)</title>
<path fill="none" stroke="blue" d="M297.272,-343.29C317.502,-333.59 343.722,-321.02 365.842,-310.41"/>
<polygon fill="blue" stroke="blue" points="367.537,-313.479 375.042,-306 364.512,-307.166 367.537,-313.479"/>
</g>
<!-- Set (nD) -->
<g id="node88" class="node"><title>Set (nD)</title>
<ellipse fill="lightblue" stroke="black" cx="410.502" cy="-360" rx="44.0496" ry="18"/>
<text text-anchor="middle" x="410.502" y="-354.4" font-family="Times,serif" font-size="14.00">Set (nD)</text>
</g>
<!-- Set (nD)&#45;&gt;RSet (nD) -->
<g id="edge69" class="edge"><title>Set (nD)&#45;&gt;RSet (nD)</title>
<path fill="none" stroke="blue" d="M410.502,-341.7C410.502,-333.98 410.502,-324.71 410.502,-316.11"/>
<polygon fill="blue" stroke="blue" points="414.002,-316.1 410.502,-306.1 407.002,-316.1 414.002,-316.1"/>
</g>
<!-- Group (nD) -->
<g id="node89" class="node"><title>Group (nD)</title>
<ellipse fill="lightblue" stroke="black" cx="528.502" cy="-360" rx="56.5" ry="18"/>
<text text-anchor="middle" x="528.502" y="-354.4" font-family="Times,serif" font-size="14.00">Group (nD)</text>
</g>
<!-- Group (nD)&#45;&gt;RSet (nD) -->
<g id="edge71" class="edge"><title>Group (nD)&#45;&gt;RSet (nD)</title>
<path fill="none" stroke="blue" d="M502.902,-343.81C486.962,-334.36 466.192,-322.04 448.382,-311.47"/>
<polygon fill="blue" stroke="blue" points="449.759,-308.218 439.372,-306.13 446.19,-314.24 449.759,-308.218"/>
</g>
<!-- Text (3D) -->
<g id="node94" class="node"><title>Text (3D)</title>
<ellipse fill="lightblue" stroke="black" cx="49.5" cy="-810" rx="49.5" ry="18"/>
<text text-anchor="middle" x="49.5" y="-804.4" font-family="Times,serif" font-size="14.00">Text (3D)</text>
</g>
<!-- RText (2D) -->
<g id="node95" class="node"><title>RText (2D)</title>
<polygon fill="none" stroke="black" points="90,-756 9,-756 9,-720 90,-720 90,-756"/>
<text text-anchor="middle" x="49.5" y="-732.4" font-family="Times,serif" font-size="14.00">RText (2D)</text>
</g>
<!-- Text (3D)&#45;&gt;RText (2D) -->
<g id="edge74" class="edge"><title>Text (3D)&#45;&gt;RText (2D)</title>
<path fill="none" stroke="blue" d="M49.5,-791.7C49.5,-783.98 49.5,-774.71 49.5,-766.11"/>
<polygon fill="blue" stroke="blue" points="53.0001,-766.1 49.5,-756.1 46.0001,-766.1 53.0001,-766.1"/>
</g>
<!-- Scale (3D) -->
<g id="node98" class="node"><title>Scale (3D)</title>
<ellipse fill="lightblue" stroke="black" cx="383.502" cy="-423" rx="52.6946" ry="18"/>
<text text-anchor="middle" x="383.502" y="-417.4" font-family="Times,serif" font-size="14.00">Scale (3D)</text>
</g>
<!-- Grid (3D) -->
<g id="node100" class="node"><title>Grid (3D)</title>
<ellipse fill="lightblue" stroke="black" cx="244.502" cy="-453" rx="49.5" ry="18"/>
<text text-anchor="middle" x="244.502" y="-447.4" font-family="Times,serif" font-size="14.00">Grid (3D)</text>
</g>
</g>
</svg>
